<svg width="6" height="11" viewBox="0 0 6 11" fill="none" xmlns="http://www.w3.org/2000/svg">
<path d="M5.77734 9.4668L1.80469 5.49414L5.77734 1.52148C5.92969 1.38086 6.00586 1.21094 6.00586 1.01172C6.00586 0.800781 5.92969 0.619141 5.77734 0.466797C5.63672 0.326172 5.46094 0.255859 5.25 0.255859C5.03906 0.255859 4.86328 0.326172 4.72266 0.466797L0.222656 4.9668C0.0703125 5.11914 -0.00585938 5.30078 -0.00585938 5.51172C-0.00585938 5.71094 0.0703125 5.88086 0.222656 6.02148L4.72266 10.5215C4.86328 10.6738 5.03906 10.75 5.25 10.75C5.46094 10.75 5.63672 10.6738 5.77734 10.5215C5.92969 10.3809 6.00586 10.2109 6.00586 10.0117C6.00586 9.80078 5.92969 9.61914 5.77734 9.4668Z" fill="white"/>
</svg>
