<svg width="6" height="10" viewBox="0 0 6 10" fill="none" xmlns="http://www.w3.org/2000/svg">
<path d="M1.46875 9.79688L5.46875 5.79688C5.60417 5.67188 5.67188 5.52083 5.67188 5.34375C5.67188 5.15625 5.60417 4.99479 5.46875 4.85938L1.46875 0.859375C1.34375 0.734375 1.1875 0.671875 1 0.671875C0.8125 0.671875 0.65625 0.734375 0.53125 0.859375C0.395833 0.994792 0.328125 1.15625 0.328125 1.34375C0.328125 1.52083 0.395833 1.67188 0.53125 1.79688L4.0625 5.32812L0.53125 8.85938C0.395833 8.99479 0.328125 9.15625 0.328125 9.34375C0.328125 9.52083 0.395833 9.67188 0.53125 9.79688C0.65625 9.93229 0.8125 10 1 10C1.1875 10 1.34375 9.93229 1.46875 9.79688Z" fill="#8D979E"/>
</svg>
