<svg width="64" height="12" viewBox="0 0 64 12" fill="none" xmlns="http://www.w3.org/2000/svg">
<path d="M12.3204 4.35547C12.3594 4.47266 12.3633 4.59375 12.3321 4.71875C12.3008 4.84375 12.2344 4.94922 12.1329 5.03516L9.51959 7.33203L10.293 10.7305C10.3165 10.8555 10.3047 10.9766 10.2579 11.0938C10.2188 11.2109 10.1485 11.3086 10.0469 11.3867C9.93756 11.4648 9.82037 11.5039 9.69537 11.5039C9.57037 11.5117 9.45319 11.4844 9.34381 11.4219L6.35553 9.62891L3.36725 11.4219C3.32037 11.4453 3.26569 11.4648 3.20319 11.4805C3.1485 11.4961 3.09381 11.5039 3.03912 11.5039C2.97662 11.5039 2.91022 11.4922 2.8399 11.4688C2.7774 11.4531 2.71881 11.4258 2.66412 11.3867C2.56256 11.3086 2.48834 11.2109 2.44147 11.0938C2.4024 10.9766 2.39459 10.8555 2.41803 10.7305L3.19147 7.33203L0.578186 5.03516C0.476624 4.94922 0.410217 4.84375 0.378967 4.71875C0.347717 4.59375 0.351624 4.47266 0.390686 4.35547C0.429749 4.23047 0.496155 4.12891 0.589905 4.05078C0.691467 3.97266 0.804749 3.92578 0.929749 3.91016L4.3985 3.60547L5.76959 0.394531C5.81647 0.277344 5.89459 0.183594 6.00397 0.113281C6.11334 0.0429688 6.23053 0.0078125 6.35553 0.0078125C6.48053 0.0078125 6.59772 0.0429688 6.70709 0.113281C6.81647 0.183594 6.89459 0.277344 6.94147 0.394531L8.31256 3.60547L11.7813 3.91016C11.9063 3.92578 12.0157 3.97266 12.1094 4.05078C12.211 4.12891 12.2813 4.23047 12.3204 4.35547ZM25.0404 4.35547C25.0794 4.47266 25.0833 4.59375 25.0521 4.71875C25.0208 4.84375 24.9544 4.94922 24.8529 5.03516L22.2396 7.33203L23.013 10.7305C23.0365 10.8555 23.0247 10.9766 22.9779 11.0938C22.9388 11.2109 22.8685 11.3086 22.7669 11.3867C22.6576 11.4648 22.5404 11.5039 22.4154 11.5039C22.2904 11.5117 22.1732 11.4844 22.0638 11.4219L19.0755 9.62891L16.0872 11.4219C16.0404 11.4453 15.9857 11.4648 15.9232 11.4805C15.8685 11.4961 15.8138 11.5039 15.7591 11.5039C15.6966 11.5039 15.6302 11.4922 15.5599 11.4688C15.4974 11.4531 15.4388 11.4258 15.3841 11.3867C15.2826 11.3086 15.2083 11.2109 15.1615 11.0938C15.1224 10.9766 15.1146 10.8555 15.138 10.7305L15.9115 7.33203L13.2982 5.03516C13.1966 4.94922 13.1302 4.84375 13.099 4.71875C13.0677 4.59375 13.0716 4.47266 13.1107 4.35547C13.1497 4.23047 13.2162 4.12891 13.3099 4.05078C13.4115 3.97266 13.5247 3.92578 13.6497 3.91016L17.1185 3.60547L18.4896 0.394531C18.5365 0.277344 18.6146 0.183594 18.724 0.113281C18.8333 0.0429688 18.9505 0.0078125 19.0755 0.0078125C19.2005 0.0078125 19.3177 0.0429688 19.4271 0.113281C19.5365 0.183594 19.6146 0.277344 19.6615 0.394531L21.0326 3.60547L24.5013 3.91016C24.6263 3.92578 24.7357 3.97266 24.8294 4.05078C24.931 4.12891 25.0013 4.23047 25.0404 4.35547ZM37.7604 4.35547C37.7994 4.47266 37.8033 4.59375 37.7721 4.71875C37.7408 4.84375 37.6744 4.94922 37.5729 5.03516L34.9596 7.33203L35.733 10.7305C35.7565 10.8555 35.7447 10.9766 35.6979 11.0938C35.6588 11.2109 35.5885 11.3086 35.4869 11.3867C35.3776 11.4648 35.2604 11.5039 35.1354 11.5039C35.0104 11.5117 34.8932 11.4844 34.7838 11.4219L31.7955 9.62891L28.8072 11.4219C28.7604 11.4453 28.7057 11.4648 28.6432 11.4805C28.5885 11.4961 28.5338 11.5039 28.4791 11.5039C28.4166 11.5039 28.3502 11.4922 28.2799 11.4688C28.2174 11.4531 28.1588 11.4258 28.1041 11.3867C28.0026 11.3086 27.9283 11.2109 27.8815 11.0938C27.8424 10.9766 27.8346 10.8555 27.858 10.7305L28.6315 7.33203L26.0182 5.03516C25.9166 4.94922 25.8502 4.84375 25.819 4.71875C25.7877 4.59375 25.7916 4.47266 25.8307 4.35547C25.8697 4.23047 25.9362 4.12891 26.0299 4.05078C26.1315 3.97266 26.2447 3.92578 26.3697 3.91016L29.8385 3.60547L31.2096 0.394531C31.2565 0.277344 31.3346 0.183594 31.444 0.113281C31.5533 0.0429688 31.6705 0.0078125 31.7955 0.0078125C31.9205 0.0078125 32.0377 0.0429688 32.1471 0.113281C32.2565 0.183594 32.3346 0.277344 32.3815 0.394531L33.7526 3.60547L37.2213 3.91016C37.3463 3.92578 37.4557 3.97266 37.5494 4.05078C37.651 4.12891 37.7213 4.23047 37.7604 4.35547ZM50.4804 4.35547C50.5194 4.47266 50.5233 4.59375 50.4921 4.71875C50.4608 4.84375 50.3944 4.94922 50.2929 5.03516L47.6796 7.33203L48.453 10.7305C48.4765 10.8555 48.4647 10.9766 48.4179 11.0938C48.3788 11.2109 48.3085 11.3086 48.2069 11.3867C48.0976 11.4648 47.9804 11.5039 47.8554 11.5039C47.7304 11.5117 47.6132 11.4844 47.5038 11.4219L44.5155 9.62891L41.5272 11.4219C41.4804 11.4453 41.4257 11.4648 41.3632 11.4805C41.3085 11.4961 41.2538 11.5039 41.1991 11.5039C41.1366 11.5039 41.0702 11.4922 40.9999 11.4688C40.9374 11.4531 40.8788 11.4258 40.8241 11.3867C40.7226 11.3086 40.6483 11.2109 40.6015 11.0938C40.5624 10.9766 40.5546 10.8555 40.578 10.7305L41.3515 7.33203L38.7382 5.03516C38.6366 4.94922 38.5702 4.84375 38.539 4.71875C38.5077 4.59375 38.5116 4.47266 38.5507 4.35547C38.5897 4.23047 38.6562 4.12891 38.7499 4.05078C38.8515 3.97266 38.9647 3.92578 39.0897 3.91016L42.5585 3.60547L43.9296 0.394531C43.9765 0.277344 44.0546 0.183594 44.164 0.113281C44.2733 0.0429688 44.3905 0.0078125 44.5155 0.0078125C44.6405 0.0078125 44.7577 0.0429688 44.8671 0.113281C44.9765 0.183594 45.0546 0.277344 45.1015 0.394531L46.4726 3.60547L49.9413 3.91016C50.0663 3.92578 50.1757 3.97266 50.2694 4.05078C50.371 4.12891 50.4413 4.23047 50.4804 4.35547ZM63.2004 4.35547C63.2394 4.47266 63.2433 4.59375 63.2121 4.71875C63.1808 4.84375 63.1144 4.94922 63.0129 5.03516L60.3996 7.33203L61.173 10.7305C61.1965 10.8555 61.1847 10.9766 61.1379 11.0938C61.0988 11.2109 61.0285 11.3086 60.9269 11.3867C60.8176 11.4648 60.7004 11.5039 60.5754 11.5039C60.4504 11.5117 60.3332 11.4844 60.2238 11.4219L57.2355 9.62891L54.2472 11.4219C54.2004 11.4453 54.1457 11.4648 54.0832 11.4805C54.0285 11.4961 53.9738 11.5039 53.9191 11.5039C53.8566 11.5039 53.7902 11.4922 53.7199 11.4688C53.6574 11.4531 53.5988 11.4258 53.5441 11.3867C53.4426 11.3086 53.3683 11.2109 53.3215 11.0938C53.2824 10.9766 53.2746 10.8555 53.298 10.7305L54.0715 7.33203L51.4582 5.03516C51.3566 4.94922 51.2902 4.84375 51.259 4.71875C51.2277 4.59375 51.2316 4.47266 51.2707 4.35547C51.3097 4.23047 51.3762 4.12891 51.4699 4.05078C51.5715 3.97266 51.6847 3.92578 51.8097 3.91016L55.2785 3.60547L56.6496 0.394531C56.6965 0.277344 56.7746 0.183594 56.884 0.113281C56.9933 0.0429688 57.1105 0.0078125 57.2355 0.0078125C57.3605 0.0078125 57.4777 0.0429688 57.5871 0.113281C57.6965 0.183594 57.7746 0.277344 57.8215 0.394531L59.1926 3.60547L62.6613 3.91016C62.7863 3.92578 62.8957 3.97266 62.9894 4.05078C63.091 4.12891 63.1613 4.23047 63.2004 4.35547Z" fill="#FFB800"/>
</svg>
